<?xml version="1.0" encoding="UTF-8" standalone="no"?>
<!DOCTYPE svg PUBLIC "-//W3C//DTD SVG 1.1//EN"
 "http://www.w3.org/Graphics/SVG/1.1/DTD/svg11.dtd">
<!-- Generated by graphviz version 5.0.0 (20220707.1540)
 -->
<!-- Title: UmlClassDiagram Pages: 1 -->
<svg width="940pt" height="805pt"
 viewBox="0.00 0.00 940.15 804.80" xmlns="http://www.w3.org/2000/svg" xmlns:xlink="http://www.w3.org/1999/xlink">
<g id="graph0" class="graph" transform="scale(1 1) rotate(0) translate(4 800.8)">
<title>UmlClassDiagram</title>
<polygon fill="white" stroke="transparent" points="-4,4 -4,-800.8 936.15,-800.8 936.15,4 -4,4"/>
<!-- 0 -->
<g id="node1" class="node">
<title>0</title>
<polygon fill="#f2f2f2" stroke="black" points="163.51,-696.3 163.51,-796.3 321.42,-796.3 321.42,-696.3 163.51,-696.3"/>
<text text-anchor="middle" x="242.47" y="-779.7" font-family="Times,serif" font-size="14.00">&lt;&lt;Abstract&gt;&gt;</text>
<text text-anchor="middle" x="242.47" y="-762.9" font-family="Times,serif" font-size="14.00">Context</text>
<polyline fill="none" stroke="black" points="163.51,-754.7 321.42,-754.7 "/>
<text text-anchor="start" x="171.51" y="-738.1" font-family="Times,serif" font-size="14.00">Internal:</text>
<text text-anchor="start" x="171.51" y="-721.3" font-family="Times,serif" font-size="14.00"> &#160;&#160;&#160;_msgSender(): address</text>
<text text-anchor="start" x="171.51" y="-704.5" font-family="Times,serif" font-size="14.00"> &#160;&#160;&#160;_msgData(): bytes</text>
</g>
<!-- 1 -->
<g id="node2" class="node">
<title>1</title>
<polygon fill="#f2f2f2" stroke="black" points="0,-400.1 0,-659.3 484.93,-659.3 484.93,-400.1 0,-400.1"/>
<text text-anchor="middle" x="242.47" y="-642.7" font-family="Times,serif" font-size="14.00">&lt;&lt;Abstract&gt;&gt;</text>
<text text-anchor="middle" x="242.47" y="-625.9" font-family="Times,serif" font-size="14.00">Ownable</text>
<polyline fill="none" stroke="black" points="0,-617.7 484.93,-617.7 "/>
<text text-anchor="start" x="8" y="-601.1" font-family="Times,serif" font-size="14.00">Private:</text>
<text text-anchor="start" x="8" y="-584.3" font-family="Times,serif" font-size="14.00"> &#160;&#160;_owner: address</text>
<polyline fill="none" stroke="black" points="0,-576.1 484.93,-576.1 "/>
<text text-anchor="start" x="8" y="-559.5" font-family="Times,serif" font-size="14.00">Internal:</text>
<text text-anchor="start" x="8" y="-542.7" font-family="Times,serif" font-size="14.00"> &#160;&#160;&#160;_checkOwner()</text>
<text text-anchor="start" x="8" y="-525.9" font-family="Times,serif" font-size="14.00"> &#160;&#160;&#160;_transferOwnership(newOwner: address)</text>
<text text-anchor="start" x="8" y="-509.1" font-family="Times,serif" font-size="14.00">Public:</text>
<text text-anchor="start" x="8" y="-492.3" font-family="Times,serif" font-size="14.00"> &#160;&#160;&#160;&lt;&lt;event&gt;&gt; OwnershipTransferred(previousOwner: address, newOwner: address)</text>
<text text-anchor="start" x="8" y="-475.5" font-family="Times,serif" font-size="14.00"> &#160;&#160;&#160;&lt;&lt;modifier&gt;&gt; onlyOwner()</text>
<text text-anchor="start" x="8" y="-458.7" font-family="Times,serif" font-size="14.00"> &#160;&#160;&#160;constructor(initialOwner: address)</text>
<text text-anchor="start" x="8" y="-441.9" font-family="Times,serif" font-size="14.00"> &#160;&#160;&#160;owner(): address</text>
<text text-anchor="start" x="8" y="-425.1" font-family="Times,serif" font-size="14.00"> &#160;&#160;&#160;renounceOwnership() &lt;&lt;onlyOwner&gt;&gt;</text>
<text text-anchor="start" x="8" y="-408.3" font-family="Times,serif" font-size="14.00"> &#160;&#160;&#160;transferOwnership(newOwner: address) &lt;&lt;onlyOwner&gt;&gt;</text>
</g>
<!-- 1&#45;&gt;0 -->
<g id="edge1" class="edge">
<title>1&#45;&gt;0</title>
<path fill="none" stroke="black" d="M242.47,-659.56C242.47,-661.66 242.47,-663.75 242.47,-665.83"/>
<polygon fill="none" stroke="black" points="231.97,-665.96 242.47,-695.96 252.97,-665.96 231.97,-665.96"/>
</g>
<!-- 2 -->
<g id="node3" class="node">
<title>2</title>
<polygon fill="#f2f2f2" stroke="black" points="502.78,-420.9 502.78,-638.5 932.15,-638.5 932.15,-420.9 502.78,-420.9"/>
<text text-anchor="middle" x="717.47" y="-621.9" font-family="Times,serif" font-size="14.00">&lt;&lt;Interface&gt;&gt;</text>
<text text-anchor="middle" x="717.47" y="-605.1" font-family="Times,serif" font-size="14.00">IERC20</text>
<polyline fill="none" stroke="black" points="502.78,-596.9 932.15,-596.9 "/>
<text text-anchor="start" x="510.78" y="-580.3" font-family="Times,serif" font-size="14.00">External:</text>
<text text-anchor="start" x="510.78" y="-563.5" font-family="Times,serif" font-size="14.00"> &#160;&#160;&#160;&#160;totalSupply(): uint256</text>
<text text-anchor="start" x="510.78" y="-546.7" font-family="Times,serif" font-size="14.00"> &#160;&#160;&#160;&#160;balanceOf(account: address): uint256</text>
<text text-anchor="start" x="510.78" y="-529.9" font-family="Times,serif" font-size="14.00"> &#160;&#160;&#160;&#160;transfer(to: address, value: uint256): bool</text>
<text text-anchor="start" x="510.78" y="-513.1" font-family="Times,serif" font-size="14.00"> &#160;&#160;&#160;&#160;allowance(owner: address, spender: address): uint256</text>
<text text-anchor="start" x="510.78" y="-496.3" font-family="Times,serif" font-size="14.00"> &#160;&#160;&#160;&#160;approve(spender: address, value: uint256): bool</text>
<text text-anchor="start" x="510.78" y="-479.5" font-family="Times,serif" font-size="14.00"> &#160;&#160;&#160;&#160;transferFrom(from: address, to: address, value: uint256): bool</text>
<text text-anchor="start" x="510.78" y="-462.7" font-family="Times,serif" font-size="14.00">Public:</text>
<text text-anchor="start" x="510.78" y="-445.9" font-family="Times,serif" font-size="14.00"> &#160;&#160;&#160;&lt;&lt;event&gt;&gt; Transfer(from: address, to: address, value: uint256)</text>
<text text-anchor="start" x="510.78" y="-429.1" font-family="Times,serif" font-size="14.00"> &#160;&#160;&#160;&lt;&lt;event&gt;&gt; Approval(owner: address, spender: address, value: uint256)</text>
</g>
<!-- 3 -->
<g id="node4" class="node">
<title>3</title>
<polygon fill="#f2f2f2" stroke="black" points="1.91,-263.1 1.91,-363.1 483.02,-363.1 483.02,-263.1 1.91,-263.1"/>
<text text-anchor="middle" x="242.47" y="-346.5" font-family="Times,serif" font-size="14.00">&lt;&lt;Abstract&gt;&gt;</text>
<text text-anchor="middle" x="242.47" y="-329.7" font-family="Times,serif" font-size="14.00">TokenRecover</text>
<polyline fill="none" stroke="black" points="1.91,-321.5 483.02,-321.5 "/>
<text text-anchor="start" x="9.91" y="-304.9" font-family="Times,serif" font-size="14.00">Public:</text>
<text text-anchor="start" x="9.91" y="-288.1" font-family="Times,serif" font-size="14.00"> &#160;&#160;&#160;constructor(originalOwner: address)</text>
<text text-anchor="start" x="9.91" y="-271.3" font-family="Times,serif" font-size="14.00"> &#160;&#160;&#160;recoverERC20(tokenAddress: address, tokenAmount: uint256) &lt;&lt;onlyOwner&gt;&gt;</text>
</g>
<!-- 3&#45;&gt;1 -->
<g id="edge2" class="edge">
<title>3&#45;&gt;1</title>
<path fill="none" stroke="black" d="M242.47,-363.33C242.47,-365.44 242.47,-367.6 242.47,-369.79"/>
<polygon fill="none" stroke="black" points="231.97,-369.99 242.47,-399.99 252.97,-369.99 231.97,-369.99"/>
</g>
<!-- 3&#45;&gt;2 -->
<g id="edge3" class="edge">
<title>3&#45;&gt;2</title>
<path fill="none" stroke="black" stroke-dasharray="5,2" d="M401.95,-363.2C432.74,-374.14 464.43,-386.44 493.47,-399.6 504.95,-404.81 516.61,-410.42 528.27,-416.3"/>
<polygon fill="black" stroke="black" points="526.68,-419.42 537.18,-420.84 529.86,-413.18 526.68,-419.42"/>
</g>
<!-- 4 -->
<g id="node5" class="node">
<title>4</title>
<polygon fill="#f2f2f2" stroke="black" points="81.83,-0.5 81.83,-226.1 403.1,-226.1 403.1,-0.5 81.83,-0.5"/>
<text text-anchor="middle" x="242.47" y="-209.5" font-family="Times,serif" font-size="14.00">SampleContract</text>
<polyline fill="none" stroke="black" points="81.83,-201.3 403.1,-201.3 "/>
<text text-anchor="start" x="89.83" y="-184.7" font-family="Times,serif" font-size="14.00">Private:</text>
<text text-anchor="start" x="89.83" y="-167.9" font-family="Times,serif" font-size="14.00"> &#160;&#160;_creator: address</text>
<polyline fill="none" stroke="black" points="81.83,-159.7 403.1,-159.7 "/>
<text text-anchor="start" x="89.83" y="-143.1" font-family="Times,serif" font-size="14.00">Internal:</text>
<text text-anchor="start" x="89.83" y="-126.3" font-family="Times,serif" font-size="14.00"> &#160;&#160;&#160;_internalWork(value: uint256)</text>
<text text-anchor="start" x="89.83" y="-109.5" font-family="Times,serif" font-size="14.00">Public:</text>
<text text-anchor="start" x="89.83" y="-92.7" font-family="Times,serif" font-size="14.00"> &#160;&#160;&#160;&lt;&lt;event&gt;&gt; WorkDone(value: uint256)</text>
<text text-anchor="start" x="89.83" y="-75.9" font-family="Times,serif" font-size="14.00"> &#160;&#160;&#160;&lt;&lt;modifier&gt;&gt; onlyCreator()</text>
<text text-anchor="start" x="89.83" y="-59.1" font-family="Times,serif" font-size="14.00"> &#160;&#160;&#160;constructor()</text>
<text text-anchor="start" x="89.83" y="-42.3" font-family="Times,serif" font-size="14.00"> &#160;&#160;&#160;creator(): address</text>
<text text-anchor="start" x="89.83" y="-25.5" font-family="Times,serif" font-size="14.00"> &#160;&#160;&#160;creatorDoesWork(value: uint256) &lt;&lt;onlyCreator&gt;&gt;</text>
<text text-anchor="start" x="89.83" y="-8.7" font-family="Times,serif" font-size="14.00"> &#160;&#160;&#160;ownerDoesWork(value: uint256) &lt;&lt;onlyOwner&gt;&gt;</text>
</g>
<!-- 4&#45;&gt;3 -->
<g id="edge4" class="edge">
<title>4&#45;&gt;3</title>
<path fill="none" stroke="black" d="M242.47,-226.21C242.47,-228.3 242.47,-230.38 242.47,-232.46"/>
<polygon fill="none" stroke="black" points="231.97,-232.74 242.47,-262.74 252.97,-232.74 231.97,-232.74"/>
</g>
</g>
</svg>
