<?xml version="1.0" encoding="UTF-8" standalone="no"?>
<!DOCTYPE svg PUBLIC "-//W3C//DTD SVG 1.1//EN"
 "http://www.w3.org/Graphics/SVG/1.1/DTD/svg11.dtd">
<!-- Generated by graphviz version 5.0.0 (20220707.1540)
 -->
<!-- Title: UmlClassDiagram Pages: 1 -->
<svg width="940pt" height="771pt"
 viewBox="0.00 0.00 940.15 771.20" xmlns="http://www.w3.org/2000/svg" xmlns:xlink="http://www.w3.org/1999/xlink">
<g id="graph0" class="graph" transform="scale(1 1) rotate(0) translate(4 767.2)">
<title>UmlClassDiagram</title>
<polygon fill="white" stroke="transparent" points="-4,4 -4,-767.2 936.15,-767.2 936.15,4 -4,4"/>
<!-- 0 -->
<g id="node1" class="node">
<title>0</title>
<polygon fill="#f2f2f2" stroke="black" points="0,-387.3 0,-604.9 429.36,-604.9 429.36,-387.3 0,-387.3"/>
<text text-anchor="middle" x="214.68" y="-588.3" font-family="Times,serif" font-size="14.00">&lt;&lt;Interface&gt;&gt;</text>
<text text-anchor="middle" x="214.68" y="-571.5" font-family="Times,serif" font-size="14.00">IERC20</text>
<polyline fill="none" stroke="black" points="0,-563.3 429.36,-563.3 "/>
<text text-anchor="start" x="8" y="-546.7" font-family="Times,serif" font-size="14.00">External:</text>
<text text-anchor="start" x="8" y="-529.9" font-family="Times,serif" font-size="14.00"> &#160;&#160;&#160;&#160;totalSupply(): uint256</text>
<text text-anchor="start" x="8" y="-513.1" font-family="Times,serif" font-size="14.00"> &#160;&#160;&#160;&#160;balanceOf(account: address): uint256</text>
<text text-anchor="start" x="8" y="-496.3" font-family="Times,serif" font-size="14.00"> &#160;&#160;&#160;&#160;transfer(to: address, amount: uint256): bool</text>
<text text-anchor="start" x="8" y="-479.5" font-family="Times,serif" font-size="14.00"> &#160;&#160;&#160;&#160;allowance(owner: address, spender: address): uint256</text>
<text text-anchor="start" x="8" y="-462.7" font-family="Times,serif" font-size="14.00"> &#160;&#160;&#160;&#160;approve(spender: address, amount: uint256): bool</text>
<text text-anchor="start" x="8" y="-445.9" font-family="Times,serif" font-size="14.00"> &#160;&#160;&#160;&#160;transferFrom(from: address, to: address, amount: uint256): bool</text>
<text text-anchor="start" x="8" y="-429.1" font-family="Times,serif" font-size="14.00">Public:</text>
<text text-anchor="start" x="8" y="-412.3" font-family="Times,serif" font-size="14.00"> &#160;&#160;&#160;&lt;&lt;event&gt;&gt; Transfer(from: address, to: address, value: uint256)</text>
<text text-anchor="start" x="8" y="-395.5" font-family="Times,serif" font-size="14.00"> &#160;&#160;&#160;&lt;&lt;event&gt;&gt; Approval(owner: address, spender: address, value: uint256)</text>
</g>
<!-- 1 -->
<g id="node2" class="node">
<title>1</title>
<polygon fill="#f2f2f2" stroke="black" points="610.72,-662.7 610.72,-762.7 768.64,-762.7 768.64,-662.7 610.72,-662.7"/>
<text text-anchor="middle" x="689.68" y="-746.1" font-family="Times,serif" font-size="14.00">&lt;&lt;Abstract&gt;&gt;</text>
<text text-anchor="middle" x="689.68" y="-729.3" font-family="Times,serif" font-size="14.00">Context</text>
<polyline fill="none" stroke="black" points="610.72,-721.1 768.64,-721.1 "/>
<text text-anchor="start" x="618.72" y="-704.5" font-family="Times,serif" font-size="14.00">Internal:</text>
<text text-anchor="start" x="618.72" y="-687.7" font-family="Times,serif" font-size="14.00"> &#160;&#160;&#160;_msgSender(): address</text>
<text text-anchor="start" x="618.72" y="-670.9" font-family="Times,serif" font-size="14.00"> &#160;&#160;&#160;_msgData(): bytes</text>
</g>
<!-- 2 -->
<g id="node3" class="node">
<title>2</title>
<polygon fill="#f2f2f2" stroke="black" points="447.22,-366.5 447.22,-625.7 932.15,-625.7 932.15,-366.5 447.22,-366.5"/>
<text text-anchor="middle" x="689.68" y="-609.1" font-family="Times,serif" font-size="14.00">&lt;&lt;Abstract&gt;&gt;</text>
<text text-anchor="middle" x="689.68" y="-592.3" font-family="Times,serif" font-size="14.00">Ownable</text>
<polyline fill="none" stroke="black" points="447.22,-584.1 932.15,-584.1 "/>
<text text-anchor="start" x="455.22" y="-567.5" font-family="Times,serif" font-size="14.00">Private:</text>
<text text-anchor="start" x="455.22" y="-550.7" font-family="Times,serif" font-size="14.00"> &#160;&#160;_owner: address</text>
<polyline fill="none" stroke="black" points="447.22,-542.5 932.15,-542.5 "/>
<text text-anchor="start" x="455.22" y="-525.9" font-family="Times,serif" font-size="14.00">Internal:</text>
<text text-anchor="start" x="455.22" y="-509.1" font-family="Times,serif" font-size="14.00"> &#160;&#160;&#160;_checkOwner()</text>
<text text-anchor="start" x="455.22" y="-492.3" font-family="Times,serif" font-size="14.00"> &#160;&#160;&#160;_transferOwnership(newOwner: address)</text>
<text text-anchor="start" x="455.22" y="-475.5" font-family="Times,serif" font-size="14.00">Public:</text>
<text text-anchor="start" x="455.22" y="-458.7" font-family="Times,serif" font-size="14.00"> &#160;&#160;&#160;&lt;&lt;event&gt;&gt; OwnershipTransferred(previousOwner: address, newOwner: address)</text>
<text text-anchor="start" x="455.22" y="-441.9" font-family="Times,serif" font-size="14.00"> &#160;&#160;&#160;&lt;&lt;modifier&gt;&gt; onlyOwner()</text>
<text text-anchor="start" x="455.22" y="-425.1" font-family="Times,serif" font-size="14.00"> &#160;&#160;&#160;constructor()</text>
<text text-anchor="start" x="455.22" y="-408.3" font-family="Times,serif" font-size="14.00"> &#160;&#160;&#160;owner(): address</text>
<text text-anchor="start" x="455.22" y="-391.5" font-family="Times,serif" font-size="14.00"> &#160;&#160;&#160;renounceOwnership() &lt;&lt;onlyOwner&gt;&gt;</text>
<text text-anchor="start" x="455.22" y="-374.7" font-family="Times,serif" font-size="14.00"> &#160;&#160;&#160;transferOwnership(newOwner: address) &lt;&lt;onlyOwner&gt;&gt;</text>
</g>
<!-- 2&#45;&gt;1 -->
<g id="edge1" class="edge">
<title>2&#45;&gt;1</title>
<path fill="none" stroke="black" d="M689.68,-625.96C689.68,-628.06 689.68,-630.15 689.68,-632.23"/>
<polygon fill="none" stroke="black" points="679.18,-632.36 689.68,-662.36 700.18,-632.36 679.18,-632.36"/>
</g>
<!-- 3 -->
<g id="node4" class="node">
<title>3</title>
<polygon fill="#f2f2f2" stroke="black" points="449.13,-263.1 449.13,-329.5 930.24,-329.5 930.24,-263.1 449.13,-263.1"/>
<text text-anchor="middle" x="689.68" y="-312.9" font-family="Times,serif" font-size="14.00">TokenRecover</text>
<polyline fill="none" stroke="black" points="449.13,-304.7 930.24,-304.7 "/>
<text text-anchor="start" x="457.13" y="-288.1" font-family="Times,serif" font-size="14.00">Public:</text>
<text text-anchor="start" x="457.13" y="-271.3" font-family="Times,serif" font-size="14.00"> &#160;&#160;&#160;recoverERC20(tokenAddress: address, tokenAmount: uint256) &lt;&lt;onlyOwner&gt;&gt;</text>
</g>
<!-- 3&#45;&gt;0 -->
<g id="edge3" class="edge">
<title>3&#45;&gt;0</title>
<path fill="none" stroke="black" stroke-dasharray="5,2" d="M547.16,-329.52C511.15,-339.5 472.98,-351.7 438.68,-366 426.43,-371.11 414.02,-376.76 401.65,-382.76"/>
<polygon fill="black" stroke="black" points="400.08,-379.63 392.66,-387.19 403.17,-385.91 400.08,-379.63"/>
</g>
<!-- 3&#45;&gt;2 -->
<g id="edge2" class="edge">
<title>3&#45;&gt;2</title>
<path fill="none" stroke="black" d="M689.68,-329.52C689.68,-331.7 689.68,-333.96 689.68,-336.29"/>
<polygon fill="none" stroke="black" points="679.18,-336.44 689.68,-366.44 700.18,-336.44 679.18,-336.44"/>
</g>
<!-- 4 -->
<g id="node5" class="node">
<title>4</title>
<polygon fill="#f2f2f2" stroke="black" points="529.05,-0.5 529.05,-226.1 850.31,-226.1 850.31,-0.5 529.05,-0.5"/>
<text text-anchor="middle" x="689.68" y="-209.5" font-family="Times,serif" font-size="14.00">SampleContract</text>
<polyline fill="none" stroke="black" points="529.05,-201.3 850.31,-201.3 "/>
<text text-anchor="start" x="537.05" y="-184.7" font-family="Times,serif" font-size="14.00">Private:</text>
<text text-anchor="start" x="537.05" y="-167.9" font-family="Times,serif" font-size="14.00"> &#160;&#160;_creator: address</text>
<polyline fill="none" stroke="black" points="529.05,-159.7 850.31,-159.7 "/>
<text text-anchor="start" x="537.05" y="-143.1" font-family="Times,serif" font-size="14.00">Internal:</text>
<text text-anchor="start" x="537.05" y="-126.3" font-family="Times,serif" font-size="14.00"> &#160;&#160;&#160;_internalWork(value: uint256)</text>
<text text-anchor="start" x="537.05" y="-109.5" font-family="Times,serif" font-size="14.00">Public:</text>
<text text-anchor="start" x="537.05" y="-92.7" font-family="Times,serif" font-size="14.00"> &#160;&#160;&#160;&lt;&lt;event&gt;&gt; WorkDone(value: uint256)</text>
<text text-anchor="start" x="537.05" y="-75.9" font-family="Times,serif" font-size="14.00"> &#160;&#160;&#160;&lt;&lt;modifier&gt;&gt; onlyCreator()</text>
<text text-anchor="start" x="537.05" y="-59.1" font-family="Times,serif" font-size="14.00"> &#160;&#160;&#160;constructor()</text>
<text text-anchor="start" x="537.05" y="-42.3" font-family="Times,serif" font-size="14.00"> &#160;&#160;&#160;creator(): address</text>
<text text-anchor="start" x="537.05" y="-25.5" font-family="Times,serif" font-size="14.00"> &#160;&#160;&#160;creatorDoesWork(value: uint256) &lt;&lt;onlyCreator&gt;&gt;</text>
<text text-anchor="start" x="537.05" y="-8.7" font-family="Times,serif" font-size="14.00"> &#160;&#160;&#160;ownerDoesWork(value: uint256) &lt;&lt;onlyOwner&gt;&gt;</text>
</g>
<!-- 4&#45;&gt;3 -->
<g id="edge4" class="edge">
<title>4&#45;&gt;3</title>
<path fill="none" stroke="black" d="M689.68,-226.36C689.68,-228.54 689.68,-230.7 689.68,-232.85"/>
<polygon fill="none" stroke="black" points="679.18,-233.05 689.68,-263.05 700.18,-233.05 679.18,-233.05"/>
</g>
</g>
</svg>
