<?xml version="1.0" encoding="UTF-8" standalone="no"?>
<!DOCTYPE svg PUBLIC "-//W3C//DTD SVG 1.1//EN"
 "http://www.w3.org/Graphics/SVG/1.1/DTD/svg11.dtd">
<!-- Generated by graphviz version 5.0.0 (20220707.1540)
 -->
<!-- Title: UmlClassDiagram Pages: 1 -->
<svg width="940pt" height="771pt"
 viewBox="0.00 0.00 940.15 771.20" xmlns="http://www.w3.org/2000/svg" xmlns:xlink="http://www.w3.org/1999/xlink">
<g id="graph0" class="graph" transform="scale(1 1) rotate(0) translate(4 767.2)">
<title>UmlClassDiagram</title>
<polygon fill="white" stroke="transparent" points="-4,4 -4,-767.2 936.15,-767.2 936.15,4 -4,4"/>
<!-- 0 -->
<g id="node1" class="node">
<title>0</title>
<polygon fill="#f2f2f2" stroke="black" points="163.51,-662.7 163.51,-762.7 321.42,-762.7 321.42,-662.7 163.51,-662.7"/>
<text text-anchor="middle" x="242.47" y="-746.1" font-family="Times,serif" font-size="14.00">&lt;&lt;Abstract&gt;&gt;</text>
<text text-anchor="middle" x="242.47" y="-729.3" font-family="Times,serif" font-size="14.00">Context</text>
<polyline fill="none" stroke="black" points="163.51,-721.1 321.42,-721.1 "/>
<text text-anchor="start" x="171.51" y="-704.5" font-family="Times,serif" font-size="14.00">Internal:</text>
<text text-anchor="start" x="171.51" y="-687.7" font-family="Times,serif" font-size="14.00"> &#160;&#160;&#160;_msgSender(): address</text>
<text text-anchor="start" x="171.51" y="-670.9" font-family="Times,serif" font-size="14.00"> &#160;&#160;&#160;_msgData(): bytes</text>
</g>
<!-- 1 -->
<g id="node2" class="node">
<title>1</title>
<polygon fill="#f2f2f2" stroke="black" points="0,-366.5 0,-625.7 484.93,-625.7 484.93,-366.5 0,-366.5"/>
<text text-anchor="middle" x="242.47" y="-609.1" font-family="Times,serif" font-size="14.00">&lt;&lt;Abstract&gt;&gt;</text>
<text text-anchor="middle" x="242.47" y="-592.3" font-family="Times,serif" font-size="14.00">Ownable</text>
<polyline fill="none" stroke="black" points="0,-584.1 484.93,-584.1 "/>
<text text-anchor="start" x="8" y="-567.5" font-family="Times,serif" font-size="14.00">Private:</text>
<text text-anchor="start" x="8" y="-550.7" font-family="Times,serif" font-size="14.00"> &#160;&#160;_owner: address</text>
<polyline fill="none" stroke="black" points="0,-542.5 484.93,-542.5 "/>
<text text-anchor="start" x="8" y="-525.9" font-family="Times,serif" font-size="14.00">Internal:</text>
<text text-anchor="start" x="8" y="-509.1" font-family="Times,serif" font-size="14.00"> &#160;&#160;&#160;_checkOwner()</text>
<text text-anchor="start" x="8" y="-492.3" font-family="Times,serif" font-size="14.00"> &#160;&#160;&#160;_transferOwnership(newOwner: address)</text>
<text text-anchor="start" x="8" y="-475.5" font-family="Times,serif" font-size="14.00">Public:</text>
<text text-anchor="start" x="8" y="-458.7" font-family="Times,serif" font-size="14.00"> &#160;&#160;&#160;&lt;&lt;event&gt;&gt; OwnershipTransferred(previousOwner: address, newOwner: address)</text>
<text text-anchor="start" x="8" y="-441.9" font-family="Times,serif" font-size="14.00"> &#160;&#160;&#160;&lt;&lt;modifier&gt;&gt; onlyOwner()</text>
<text text-anchor="start" x="8" y="-425.1" font-family="Times,serif" font-size="14.00"> &#160;&#160;&#160;constructor()</text>
<text text-anchor="start" x="8" y="-408.3" font-family="Times,serif" font-size="14.00"> &#160;&#160;&#160;owner(): address</text>
<text text-anchor="start" x="8" y="-391.5" font-family="Times,serif" font-size="14.00"> &#160;&#160;&#160;renounceOwnership() &lt;&lt;onlyOwner&gt;&gt;</text>
<text text-anchor="start" x="8" y="-374.7" font-family="Times,serif" font-size="14.00"> &#160;&#160;&#160;transferOwnership(newOwner: address) &lt;&lt;onlyOwner&gt;&gt;</text>
</g>
<!-- 1&#45;&gt;0 -->
<g id="edge1" class="edge">
<title>1&#45;&gt;0</title>
<path fill="none" stroke="black" d="M242.47,-625.96C242.47,-628.06 242.47,-630.15 242.47,-632.23"/>
<polygon fill="none" stroke="black" points="231.97,-632.36 242.47,-662.36 252.97,-632.36 231.97,-632.36"/>
</g>
<!-- 2 -->
<g id="node3" class="node">
<title>2</title>
<polygon fill="#f2f2f2" stroke="black" points="502.78,-387.3 502.78,-604.9 932.15,-604.9 932.15,-387.3 502.78,-387.3"/>
<text text-anchor="middle" x="717.47" y="-588.3" font-family="Times,serif" font-size="14.00">&lt;&lt;Interface&gt;&gt;</text>
<text text-anchor="middle" x="717.47" y="-571.5" font-family="Times,serif" font-size="14.00">IERC20</text>
<polyline fill="none" stroke="black" points="502.78,-563.3 932.15,-563.3 "/>
<text text-anchor="start" x="510.78" y="-546.7" font-family="Times,serif" font-size="14.00">External:</text>
<text text-anchor="start" x="510.78" y="-529.9" font-family="Times,serif" font-size="14.00"> &#160;&#160;&#160;&#160;totalSupply(): uint256</text>
<text text-anchor="start" x="510.78" y="-513.1" font-family="Times,serif" font-size="14.00"> &#160;&#160;&#160;&#160;balanceOf(account: address): uint256</text>
<text text-anchor="start" x="510.78" y="-496.3" font-family="Times,serif" font-size="14.00"> &#160;&#160;&#160;&#160;transfer(to: address, amount: uint256): bool</text>
<text text-anchor="start" x="510.78" y="-479.5" font-family="Times,serif" font-size="14.00"> &#160;&#160;&#160;&#160;allowance(owner: address, spender: address): uint256</text>
<text text-anchor="start" x="510.78" y="-462.7" font-family="Times,serif" font-size="14.00"> &#160;&#160;&#160;&#160;approve(spender: address, amount: uint256): bool</text>
<text text-anchor="start" x="510.78" y="-445.9" font-family="Times,serif" font-size="14.00"> &#160;&#160;&#160;&#160;transferFrom(from: address, to: address, amount: uint256): bool</text>
<text text-anchor="start" x="510.78" y="-429.1" font-family="Times,serif" font-size="14.00">Public:</text>
<text text-anchor="start" x="510.78" y="-412.3" font-family="Times,serif" font-size="14.00"> &#160;&#160;&#160;&lt;&lt;event&gt;&gt; Transfer(from: address, to: address, value: uint256)</text>
<text text-anchor="start" x="510.78" y="-395.5" font-family="Times,serif" font-size="14.00"> &#160;&#160;&#160;&lt;&lt;event&gt;&gt; Approval(owner: address, spender: address, value: uint256)</text>
</g>
<!-- 3 -->
<g id="node4" class="node">
<title>3</title>
<polygon fill="#f2f2f2" stroke="black" points="1.91,-263.1 1.91,-329.5 483.02,-329.5 483.02,-263.1 1.91,-263.1"/>
<text text-anchor="middle" x="242.47" y="-312.9" font-family="Times,serif" font-size="14.00">TokenRecover</text>
<polyline fill="none" stroke="black" points="1.91,-304.7 483.02,-304.7 "/>
<text text-anchor="start" x="9.91" y="-288.1" font-family="Times,serif" font-size="14.00">Public:</text>
<text text-anchor="start" x="9.91" y="-271.3" font-family="Times,serif" font-size="14.00"> &#160;&#160;&#160;recoverERC20(tokenAddress: address, tokenAmount: uint256) &lt;&lt;onlyOwner&gt;&gt;</text>
</g>
<!-- 3&#45;&gt;1 -->
<g id="edge2" class="edge">
<title>3&#45;&gt;1</title>
<path fill="none" stroke="black" d="M242.47,-329.52C242.47,-331.7 242.47,-333.96 242.47,-336.29"/>
<polygon fill="none" stroke="black" points="231.97,-336.44 242.47,-366.44 252.97,-336.44 231.97,-336.44"/>
</g>
<!-- 3&#45;&gt;2 -->
<g id="edge3" class="edge">
<title>3&#45;&gt;2</title>
<path fill="none" stroke="black" stroke-dasharray="5,2" d="M384.99,-329.52C421,-339.5 459.17,-351.7 493.47,-366 505.72,-371.11 518.13,-376.76 530.5,-382.76"/>
<polygon fill="black" stroke="black" points="528.97,-385.91 539.49,-387.19 532.07,-379.63 528.97,-385.91"/>
</g>
<!-- 4 -->
<g id="node5" class="node">
<title>4</title>
<polygon fill="#f2f2f2" stroke="black" points="81.83,-0.5 81.83,-226.1 403.1,-226.1 403.1,-0.5 81.83,-0.5"/>
<text text-anchor="middle" x="242.47" y="-209.5" font-family="Times,serif" font-size="14.00">SampleContract</text>
<polyline fill="none" stroke="black" points="81.83,-201.3 403.1,-201.3 "/>
<text text-anchor="start" x="89.83" y="-184.7" font-family="Times,serif" font-size="14.00">Private:</text>
<text text-anchor="start" x="89.83" y="-167.9" font-family="Times,serif" font-size="14.00"> &#160;&#160;_creator: address</text>
<polyline fill="none" stroke="black" points="81.83,-159.7 403.1,-159.7 "/>
<text text-anchor="start" x="89.83" y="-143.1" font-family="Times,serif" font-size="14.00">Internal:</text>
<text text-anchor="start" x="89.83" y="-126.3" font-family="Times,serif" font-size="14.00"> &#160;&#160;&#160;_internalWork(value: uint256)</text>
<text text-anchor="start" x="89.83" y="-109.5" font-family="Times,serif" font-size="14.00">Public:</text>
<text text-anchor="start" x="89.83" y="-92.7" font-family="Times,serif" font-size="14.00"> &#160;&#160;&#160;&lt;&lt;event&gt;&gt; WorkDone(value: uint256)</text>
<text text-anchor="start" x="89.83" y="-75.9" font-family="Times,serif" font-size="14.00"> &#160;&#160;&#160;&lt;&lt;modifier&gt;&gt; onlyCreator()</text>
<text text-anchor="start" x="89.83" y="-59.1" font-family="Times,serif" font-size="14.00"> &#160;&#160;&#160;constructor()</text>
<text text-anchor="start" x="89.83" y="-42.3" font-family="Times,serif" font-size="14.00"> &#160;&#160;&#160;creator(): address</text>
<text text-anchor="start" x="89.83" y="-25.5" font-family="Times,serif" font-size="14.00"> &#160;&#160;&#160;creatorDoesWork(value: uint256) &lt;&lt;onlyCreator&gt;&gt;</text>
<text text-anchor="start" x="89.83" y="-8.7" font-family="Times,serif" font-size="14.00"> &#160;&#160;&#160;ownerDoesWork(value: uint256) &lt;&lt;onlyOwner&gt;&gt;</text>
</g>
<!-- 4&#45;&gt;3 -->
<g id="edge4" class="edge">
<title>4&#45;&gt;3</title>
<path fill="none" stroke="black" d="M242.47,-226.36C242.47,-228.54 242.47,-230.7 242.47,-232.85"/>
<polygon fill="none" stroke="black" points="231.97,-233.05 242.47,-263.05 252.97,-233.05 231.97,-233.05"/>
</g>
</g>
</svg>
