<?xml version="1.0" encoding="UTF-8" standalone="no"?>
<!DOCTYPE svg PUBLIC "-//W3C//DTD SVG 1.1//EN"
 "http://www.w3.org/Graphics/SVG/1.1/DTD/svg11.dtd">
<!-- Generated by graphviz version 5.0.0 (20220707.1540)
 -->
<!-- Title: UmlClassDiagram Pages: 1 -->
<svg width="940pt" height="738pt"
 viewBox="0.00 0.00 940.15 737.60" xmlns="http://www.w3.org/2000/svg" xmlns:xlink="http://www.w3.org/1999/xlink">
<g id="graph0" class="graph" transform="scale(1 1) rotate(0) translate(4 733.6)">
<title>UmlClassDiagram</title>
<polygon fill="white" stroke="transparent" points="-4,4 -4,-733.6 936.15,-733.6 936.15,4 -4,4"/>
<!-- 0 -->
<g id="node1" class="node">
<title>0</title>
<polygon fill="#f2f2f2" stroke="black" points="0,-353.7 0,-571.3 429.36,-571.3 429.36,-353.7 0,-353.7"/>
<text text-anchor="middle" x="214.68" y="-554.7" font-family="Times,serif" font-size="14.00">&lt;&lt;Interface&gt;&gt;</text>
<text text-anchor="middle" x="214.68" y="-537.9" font-family="Times,serif" font-size="14.00">IERC20</text>
<polyline fill="none" stroke="black" points="0,-529.7 429.36,-529.7 "/>
<text text-anchor="start" x="8" y="-513.1" font-family="Times,serif" font-size="14.00">External:</text>
<text text-anchor="start" x="8" y="-496.3" font-family="Times,serif" font-size="14.00"> &#160;&#160;&#160;&#160;totalSupply(): uint256</text>
<text text-anchor="start" x="8" y="-479.5" font-family="Times,serif" font-size="14.00"> &#160;&#160;&#160;&#160;balanceOf(account: address): uint256</text>
<text text-anchor="start" x="8" y="-462.7" font-family="Times,serif" font-size="14.00"> &#160;&#160;&#160;&#160;transfer(to: address, amount: uint256): bool</text>
<text text-anchor="start" x="8" y="-445.9" font-family="Times,serif" font-size="14.00"> &#160;&#160;&#160;&#160;allowance(owner: address, spender: address): uint256</text>
<text text-anchor="start" x="8" y="-429.1" font-family="Times,serif" font-size="14.00"> &#160;&#160;&#160;&#160;approve(spender: address, amount: uint256): bool</text>
<text text-anchor="start" x="8" y="-412.3" font-family="Times,serif" font-size="14.00"> &#160;&#160;&#160;&#160;transferFrom(from: address, to: address, amount: uint256): bool</text>
<text text-anchor="start" x="8" y="-395.5" font-family="Times,serif" font-size="14.00">Public:</text>
<text text-anchor="start" x="8" y="-378.7" font-family="Times,serif" font-size="14.00"> &#160;&#160;&#160;&lt;&lt;event&gt;&gt; Transfer(from: address, to: address, value: uint256)</text>
<text text-anchor="start" x="8" y="-361.9" font-family="Times,serif" font-size="14.00"> &#160;&#160;&#160;&lt;&lt;event&gt;&gt; Approval(owner: address, spender: address, value: uint256)</text>
</g>
<!-- 1 -->
<g id="node2" class="node">
<title>1</title>
<polygon fill="#f2f2f2" stroke="black" points="610.72,-629.1 610.72,-729.1 768.64,-729.1 768.64,-629.1 610.72,-629.1"/>
<text text-anchor="middle" x="689.68" y="-712.5" font-family="Times,serif" font-size="14.00">&lt;&lt;Abstract&gt;&gt;</text>
<text text-anchor="middle" x="689.68" y="-695.7" font-family="Times,serif" font-size="14.00">Context</text>
<polyline fill="none" stroke="black" points="610.72,-687.5 768.64,-687.5 "/>
<text text-anchor="start" x="618.72" y="-670.9" font-family="Times,serif" font-size="14.00">Internal:</text>
<text text-anchor="start" x="618.72" y="-654.1" font-family="Times,serif" font-size="14.00"> &#160;&#160;&#160;_msgSender(): address</text>
<text text-anchor="start" x="618.72" y="-637.3" font-family="Times,serif" font-size="14.00"> &#160;&#160;&#160;_msgData(): bytes</text>
</g>
<!-- 2 -->
<g id="node3" class="node">
<title>2</title>
<polygon fill="#f2f2f2" stroke="black" points="447.22,-332.9 447.22,-592.1 932.15,-592.1 932.15,-332.9 447.22,-332.9"/>
<text text-anchor="middle" x="689.68" y="-575.5" font-family="Times,serif" font-size="14.00">&lt;&lt;Abstract&gt;&gt;</text>
<text text-anchor="middle" x="689.68" y="-558.7" font-family="Times,serif" font-size="14.00">Ownable</text>
<polyline fill="none" stroke="black" points="447.22,-550.5 932.15,-550.5 "/>
<text text-anchor="start" x="455.22" y="-533.9" font-family="Times,serif" font-size="14.00">Private:</text>
<text text-anchor="start" x="455.22" y="-517.1" font-family="Times,serif" font-size="14.00"> &#160;&#160;_owner: address</text>
<polyline fill="none" stroke="black" points="447.22,-508.9 932.15,-508.9 "/>
<text text-anchor="start" x="455.22" y="-492.3" font-family="Times,serif" font-size="14.00">Internal:</text>
<text text-anchor="start" x="455.22" y="-475.5" font-family="Times,serif" font-size="14.00"> &#160;&#160;&#160;_checkOwner()</text>
<text text-anchor="start" x="455.22" y="-458.7" font-family="Times,serif" font-size="14.00"> &#160;&#160;&#160;_transferOwnership(newOwner: address)</text>
<text text-anchor="start" x="455.22" y="-441.9" font-family="Times,serif" font-size="14.00">Public:</text>
<text text-anchor="start" x="455.22" y="-425.1" font-family="Times,serif" font-size="14.00"> &#160;&#160;&#160;&lt;&lt;event&gt;&gt; OwnershipTransferred(previousOwner: address, newOwner: address)</text>
<text text-anchor="start" x="455.22" y="-408.3" font-family="Times,serif" font-size="14.00"> &#160;&#160;&#160;&lt;&lt;modifier&gt;&gt; onlyOwner()</text>
<text text-anchor="start" x="455.22" y="-391.5" font-family="Times,serif" font-size="14.00"> &#160;&#160;&#160;constructor()</text>
<text text-anchor="start" x="455.22" y="-374.7" font-family="Times,serif" font-size="14.00"> &#160;&#160;&#160;owner(): address</text>
<text text-anchor="start" x="455.22" y="-357.9" font-family="Times,serif" font-size="14.00"> &#160;&#160;&#160;renounceOwnership() &lt;&lt;onlyOwner&gt;&gt;</text>
<text text-anchor="start" x="455.22" y="-341.1" font-family="Times,serif" font-size="14.00"> &#160;&#160;&#160;transferOwnership(newOwner: address) &lt;&lt;onlyOwner&gt;&gt;</text>
</g>
<!-- 2&#45;&gt;1 -->
<g id="edge1" class="edge">
<title>2&#45;&gt;1</title>
<path fill="none" stroke="black" d="M689.68,-592.36C689.68,-594.46 689.68,-596.55 689.68,-598.63"/>
<polygon fill="none" stroke="black" points="679.18,-598.76 689.68,-628.76 700.18,-598.76 679.18,-598.76"/>
</g>
<!-- 3 -->
<g id="node4" class="node">
<title>3</title>
<polygon fill="#f2f2f2" stroke="black" points="449.13,-229.5 449.13,-295.9 930.24,-295.9 930.24,-229.5 449.13,-229.5"/>
<text text-anchor="middle" x="689.68" y="-279.3" font-family="Times,serif" font-size="14.00">TokenRecover</text>
<polyline fill="none" stroke="black" points="449.13,-271.1 930.24,-271.1 "/>
<text text-anchor="start" x="457.13" y="-254.5" font-family="Times,serif" font-size="14.00">Public:</text>
<text text-anchor="start" x="457.13" y="-237.7" font-family="Times,serif" font-size="14.00"> &#160;&#160;&#160;recoverERC20(tokenAddress: address, tokenAmount: uint256) &lt;&lt;onlyOwner&gt;&gt;</text>
</g>
<!-- 3&#45;&gt;0 -->
<g id="edge3" class="edge">
<title>3&#45;&gt;0</title>
<path fill="none" stroke="black" stroke-dasharray="5,2" d="M547.16,-295.92C511.15,-305.9 472.98,-318.1 438.68,-332.4 426.43,-337.51 414.02,-343.16 401.65,-349.16"/>
<polygon fill="black" stroke="black" points="400.08,-346.03 392.66,-353.59 403.17,-352.31 400.08,-346.03"/>
</g>
<!-- 3&#45;&gt;2 -->
<g id="edge2" class="edge">
<title>3&#45;&gt;2</title>
<path fill="none" stroke="black" d="M689.68,-295.92C689.68,-298.1 689.68,-300.36 689.68,-302.69"/>
<polygon fill="none" stroke="black" points="679.18,-302.84 689.68,-332.84 700.18,-302.84 679.18,-302.84"/>
</g>
<!-- 4 -->
<g id="node5" class="node">
<title>4</title>
<polygon fill="#f2f2f2" stroke="black" points="529.05,-0.5 529.05,-192.5 850.31,-192.5 850.31,-0.5 529.05,-0.5"/>
<text text-anchor="middle" x="689.68" y="-175.9" font-family="Times,serif" font-size="14.00">SampleContract</text>
<polyline fill="none" stroke="black" points="529.05,-167.7 850.31,-167.7 "/>
<text text-anchor="start" x="537.05" y="-151.1" font-family="Times,serif" font-size="14.00">Private:</text>
<text text-anchor="start" x="537.05" y="-134.3" font-family="Times,serif" font-size="14.00"> &#160;&#160;_creator: address</text>
<polyline fill="none" stroke="black" points="529.05,-126.1 850.31,-126.1 "/>
<text text-anchor="start" x="537.05" y="-109.5" font-family="Times,serif" font-size="14.00">Public:</text>
<text text-anchor="start" x="537.05" y="-92.7" font-family="Times,serif" font-size="14.00"> &#160;&#160;&#160;&lt;&lt;event&gt;&gt; WorkDone(value: uint256)</text>
<text text-anchor="start" x="537.05" y="-75.9" font-family="Times,serif" font-size="14.00"> &#160;&#160;&#160;&lt;&lt;modifier&gt;&gt; onlyCreator()</text>
<text text-anchor="start" x="537.05" y="-59.1" font-family="Times,serif" font-size="14.00"> &#160;&#160;&#160;constructor()</text>
<text text-anchor="start" x="537.05" y="-42.3" font-family="Times,serif" font-size="14.00"> &#160;&#160;&#160;creator(): address</text>
<text text-anchor="start" x="537.05" y="-25.5" font-family="Times,serif" font-size="14.00"> &#160;&#160;&#160;creatorDoesWork(value: uint256) &lt;&lt;onlyCreator&gt;&gt;</text>
<text text-anchor="start" x="537.05" y="-8.7" font-family="Times,serif" font-size="14.00"> &#160;&#160;&#160;ownerDoesWork(value: uint256) &lt;&lt;onlyOwner&gt;&gt;</text>
</g>
<!-- 4&#45;&gt;3 -->
<g id="edge4" class="edge">
<title>4&#45;&gt;3</title>
<path fill="none" stroke="black" d="M689.68,-192.54C689.68,-194.81 689.68,-197.06 689.68,-199.29"/>
<polygon fill="none" stroke="black" points="679.18,-199.33 689.68,-229.33 700.18,-199.33 679.18,-199.33"/>
</g>
</g>
</svg>
