<?xml version="1.0" encoding="UTF-8" standalone="no"?>
<!DOCTYPE svg PUBLIC "-//W3C//DTD SVG 1.1//EN"
 "http://www.w3.org/Graphics/SVG/1.1/DTD/svg11.dtd">
<!-- Generated by graphviz version 5.0.0 (20220707.1540)
 -->
<!-- Title: UmlClassDiagram Pages: 1 -->
<svg width="1623pt" height="1143pt"
 viewBox="0.00 0.00 1623.11 1143.40" xmlns="http://www.w3.org/2000/svg" xmlns:xlink="http://www.w3.org/1999/xlink">
<g id="graph0" class="graph" transform="scale(1 1) rotate(0) translate(4 1139.4)">
<title>UmlClassDiagram</title>
<polygon fill="white" stroke="transparent" points="-4,4 -4,-1139.4 1619.11,-1139.4 1619.11,4 -4,4"/>
<!-- 0 -->
<g id="node1" class="node">
<title>0</title>
<polygon fill="#f2f2f2" stroke="black" points="163.51,-822.3 163.51,-922.3 321.42,-922.3 321.42,-822.3 163.51,-822.3"/>
<text text-anchor="middle" x="242.47" y="-905.7" font-family="Times,serif" font-size="14.00">&lt;&lt;Abstract&gt;&gt;</text>
<text text-anchor="middle" x="242.47" y="-888.9" font-family="Times,serif" font-size="14.00">Context</text>
<polyline fill="none" stroke="black" points="163.51,-880.7 321.42,-880.7 "/>
<text text-anchor="start" x="171.51" y="-864.1" font-family="Times,serif" font-size="14.00">Internal:</text>
<text text-anchor="start" x="171.51" y="-847.3" font-family="Times,serif" font-size="14.00"> &#160;&#160;&#160;_msgSender(): address</text>
<text text-anchor="start" x="171.51" y="-830.5" font-family="Times,serif" font-size="14.00"> &#160;&#160;&#160;_msgData(): bytes</text>
</g>
<!-- 1 -->
<g id="node2" class="node">
<title>1</title>
<polygon fill="#f2f2f2" stroke="black" points="0,-433.7 0,-692.9 484.93,-692.9 484.93,-433.7 0,-433.7"/>
<text text-anchor="middle" x="242.47" y="-676.3" font-family="Times,serif" font-size="14.00">&lt;&lt;Abstract&gt;&gt;</text>
<text text-anchor="middle" x="242.47" y="-659.5" font-family="Times,serif" font-size="14.00">Ownable</text>
<polyline fill="none" stroke="black" points="0,-651.3 484.93,-651.3 "/>
<text text-anchor="start" x="8" y="-634.7" font-family="Times,serif" font-size="14.00">Private:</text>
<text text-anchor="start" x="8" y="-617.9" font-family="Times,serif" font-size="14.00"> &#160;&#160;_owner: address</text>
<polyline fill="none" stroke="black" points="0,-609.7 484.93,-609.7 "/>
<text text-anchor="start" x="8" y="-593.1" font-family="Times,serif" font-size="14.00">Internal:</text>
<text text-anchor="start" x="8" y="-576.3" font-family="Times,serif" font-size="14.00"> &#160;&#160;&#160;_checkOwner()</text>
<text text-anchor="start" x="8" y="-559.5" font-family="Times,serif" font-size="14.00"> &#160;&#160;&#160;_transferOwnership(newOwner: address)</text>
<text text-anchor="start" x="8" y="-542.7" font-family="Times,serif" font-size="14.00">Public:</text>
<text text-anchor="start" x="8" y="-525.9" font-family="Times,serif" font-size="14.00"> &#160;&#160;&#160;&lt;&lt;event&gt;&gt; OwnershipTransferred(previousOwner: address, newOwner: address)</text>
<text text-anchor="start" x="8" y="-509.1" font-family="Times,serif" font-size="14.00"> &#160;&#160;&#160;&lt;&lt;modifier&gt;&gt; onlyOwner()</text>
<text text-anchor="start" x="8" y="-492.3" font-family="Times,serif" font-size="14.00"> &#160;&#160;&#160;constructor(initialOwner: address)</text>
<text text-anchor="start" x="8" y="-475.5" font-family="Times,serif" font-size="14.00"> &#160;&#160;&#160;owner(): address</text>
<text text-anchor="start" x="8" y="-458.7" font-family="Times,serif" font-size="14.00"> &#160;&#160;&#160;renounceOwnership() &lt;&lt;onlyOwner&gt;&gt;</text>
<text text-anchor="start" x="8" y="-441.9" font-family="Times,serif" font-size="14.00"> &#160;&#160;&#160;transferOwnership(newOwner: address) &lt;&lt;onlyOwner&gt;&gt;</text>
</g>
<!-- 1&#45;&gt;0 -->
<g id="edge1" class="edge">
<title>1&#45;&gt;0</title>
<path fill="none" stroke="black" d="M242.47,-693.16C242.47,-726.66 242.47,-761.77 242.47,-791.88"/>
<polygon fill="none" stroke="black" points="231.97,-792.27 242.47,-822.27 252.97,-792.27 231.97,-792.27"/>
</g>
<!-- 2 -->
<g id="node3" class="node">
<title>2</title>
<polygon fill="#f2f2f2" stroke="black" points="1193.04,-1051.7 1193.04,-1134.9 1469.89,-1134.9 1469.89,-1051.7 1193.04,-1051.7"/>
<text text-anchor="middle" x="1331.47" y="-1118.3" font-family="Times,serif" font-size="14.00">&lt;&lt;Interface&gt;&gt;</text>
<text text-anchor="middle" x="1331.47" y="-1101.5" font-family="Times,serif" font-size="14.00">IERC165</text>
<polyline fill="none" stroke="black" points="1193.04,-1093.3 1469.89,-1093.3 "/>
<text text-anchor="start" x="1201.04" y="-1076.7" font-family="Times,serif" font-size="14.00">External:</text>
<text text-anchor="start" x="1201.04" y="-1059.9" font-family="Times,serif" font-size="14.00"> &#160;&#160;&#160;&#160;supportsInterface(interfaceId: bytes4): bool</text>
</g>
<!-- 3 -->
<g id="node4" class="node">
<title>3</title>
<polygon fill="#f2f2f2" stroke="black" points="1094.62,-729.9 1094.62,-1014.7 1568.31,-1014.7 1568.31,-729.9 1094.62,-729.9"/>
<text text-anchor="middle" x="1331.47" y="-998.1" font-family="Times,serif" font-size="14.00">&lt;&lt;Interface&gt;&gt;</text>
<text text-anchor="middle" x="1331.47" y="-981.3" font-family="Times,serif" font-size="14.00">IERC721</text>
<polyline fill="none" stroke="black" points="1094.62,-973.1 1568.31,-973.1 "/>
<text text-anchor="start" x="1102.62" y="-956.5" font-family="Times,serif" font-size="14.00">External:</text>
<text text-anchor="start" x="1102.62" y="-939.7" font-family="Times,serif" font-size="14.00"> &#160;&#160;&#160;&#160;balanceOf(owner: address): (balance: uint256)</text>
<text text-anchor="start" x="1102.62" y="-922.9" font-family="Times,serif" font-size="14.00"> &#160;&#160;&#160;&#160;ownerOf(tokenId: uint256): (owner: address)</text>
<text text-anchor="start" x="1102.62" y="-906.1" font-family="Times,serif" font-size="14.00"> &#160;&#160;&#160;&#160;safeTransferFrom(from: address, to: address, tokenId: uint256, data: bytes)</text>
<text text-anchor="start" x="1102.62" y="-889.3" font-family="Times,serif" font-size="14.00"> &#160;&#160;&#160;&#160;safeTransferFrom(from: address, to: address, tokenId: uint256)</text>
<text text-anchor="start" x="1102.62" y="-872.5" font-family="Times,serif" font-size="14.00"> &#160;&#160;&#160;&#160;transferFrom(from: address, to: address, tokenId: uint256)</text>
<text text-anchor="start" x="1102.62" y="-855.7" font-family="Times,serif" font-size="14.00"> &#160;&#160;&#160;&#160;approve(to: address, tokenId: uint256)</text>
<text text-anchor="start" x="1102.62" y="-838.9" font-family="Times,serif" font-size="14.00"> &#160;&#160;&#160;&#160;setApprovalForAll(operator: address, approved: bool)</text>
<text text-anchor="start" x="1102.62" y="-822.1" font-family="Times,serif" font-size="14.00"> &#160;&#160;&#160;&#160;getApproved(tokenId: uint256): (operator: address)</text>
<text text-anchor="start" x="1102.62" y="-805.3" font-family="Times,serif" font-size="14.00"> &#160;&#160;&#160;&#160;isApprovedForAll(owner: address, operator: address): bool</text>
<text text-anchor="start" x="1102.62" y="-788.5" font-family="Times,serif" font-size="14.00">Public:</text>
<text text-anchor="start" x="1102.62" y="-771.7" font-family="Times,serif" font-size="14.00"> &#160;&#160;&#160;&lt;&lt;event&gt;&gt; Transfer(from: address, to: address, tokenId: uint256)</text>
<text text-anchor="start" x="1102.62" y="-754.9" font-family="Times,serif" font-size="14.00"> &#160;&#160;&#160;&lt;&lt;event&gt;&gt; Approval(owner: address, approved: address, tokenId: uint256)</text>
<text text-anchor="start" x="1102.62" y="-738.1" font-family="Times,serif" font-size="14.00"> &#160;&#160;&#160;&lt;&lt;event&gt;&gt; ApprovalForAll(owner: address, operator: address, approved: bool)</text>
</g>
<!-- 3&#45;&gt;2 -->
<g id="edge2" class="edge">
<title>3&#45;&gt;2</title>
<path fill="none" stroke="black" stroke-dasharray="5,2" d="M1331.47,-1014.78C1331.47,-1016.95 1331.47,-1019.09 1331.47,-1021.22"/>
<polygon fill="none" stroke="black" points="1320.97,-1021.48 1331.47,-1051.48 1341.97,-1021.48 1320.97,-1021.48"/>
</g>
<!-- 4 -->
<g id="node5" class="node">
<title>4</title>
<polygon fill="#f2f2f2" stroke="black" points="551.78,-763.5 551.78,-981.1 981.15,-981.1 981.15,-763.5 551.78,-763.5"/>
<text text-anchor="middle" x="766.47" y="-964.5" font-family="Times,serif" font-size="14.00">&lt;&lt;Interface&gt;&gt;</text>
<text text-anchor="middle" x="766.47" y="-947.7" font-family="Times,serif" font-size="14.00">IERC20</text>
<polyline fill="none" stroke="black" points="551.78,-939.5 981.15,-939.5 "/>
<text text-anchor="start" x="559.78" y="-922.9" font-family="Times,serif" font-size="14.00">External:</text>
<text text-anchor="start" x="559.78" y="-906.1" font-family="Times,serif" font-size="14.00"> &#160;&#160;&#160;&#160;totalSupply(): uint256</text>
<text text-anchor="start" x="559.78" y="-889.3" font-family="Times,serif" font-size="14.00"> &#160;&#160;&#160;&#160;balanceOf(account: address): uint256</text>
<text text-anchor="start" x="559.78" y="-872.5" font-family="Times,serif" font-size="14.00"> &#160;&#160;&#160;&#160;transfer(to: address, value: uint256): bool</text>
<text text-anchor="start" x="559.78" y="-855.7" font-family="Times,serif" font-size="14.00"> &#160;&#160;&#160;&#160;allowance(owner: address, spender: address): uint256</text>
<text text-anchor="start" x="559.78" y="-838.9" font-family="Times,serif" font-size="14.00"> &#160;&#160;&#160;&#160;approve(spender: address, value: uint256): bool</text>
<text text-anchor="start" x="559.78" y="-822.1" font-family="Times,serif" font-size="14.00"> &#160;&#160;&#160;&#160;transferFrom(from: address, to: address, value: uint256): bool</text>
<text text-anchor="start" x="559.78" y="-805.3" font-family="Times,serif" font-size="14.00">Public:</text>
<text text-anchor="start" x="559.78" y="-788.5" font-family="Times,serif" font-size="14.00"> &#160;&#160;&#160;&lt;&lt;event&gt;&gt; Transfer(from: address, to: address, value: uint256)</text>
<text text-anchor="start" x="559.78" y="-771.7" font-family="Times,serif" font-size="14.00"> &#160;&#160;&#160;&lt;&lt;event&gt;&gt; Approval(owner: address, spender: address, value: uint256)</text>
</g>
<!-- 5 -->
<g id="node6" class="node">
<title>5</title>
<polygon fill="#f2f2f2" stroke="black" points="502.83,-521.7 502.83,-604.9 1030.1,-604.9 1030.1,-521.7 502.83,-521.7"/>
<text text-anchor="middle" x="766.47" y="-588.3" font-family="Times,serif" font-size="14.00">&lt;&lt;Abstract&gt;&gt;</text>
<text text-anchor="middle" x="766.47" y="-571.5" font-family="Times,serif" font-size="14.00">RecoverERC20</text>
<polyline fill="none" stroke="black" points="502.83,-563.3 1030.1,-563.3 "/>
<text text-anchor="start" x="510.83" y="-546.7" font-family="Times,serif" font-size="14.00">Internal:</text>
<text text-anchor="start" x="510.83" y="-529.9" font-family="Times,serif" font-size="14.00"> &#160;&#160;&#160;_recoverERC20(tokenAddress: address, tokenReceiver: address, tokenAmount: uint256)</text>
</g>
<!-- 5&#45;&gt;4 -->
<g id="edge3" class="edge">
<title>5&#45;&gt;4</title>
<path fill="none" stroke="black" stroke-dasharray="5,2" d="M766.47,-605.07C766.47,-642.84 766.47,-700.91 766.47,-753.18"/>
<polygon fill="black" stroke="black" points="762.97,-753.21 766.47,-763.21 769.97,-753.21 762.97,-753.21"/>
</g>
<!-- 6 -->
<g id="node7" class="node">
<title>6</title>
<polygon fill="#f2f2f2" stroke="black" points="1047.82,-521.7 1047.82,-604.9 1615.11,-604.9 1615.11,-521.7 1047.82,-521.7"/>
<text text-anchor="middle" x="1331.47" y="-588.3" font-family="Times,serif" font-size="14.00">&lt;&lt;Abstract&gt;&gt;</text>
<text text-anchor="middle" x="1331.47" y="-571.5" font-family="Times,serif" font-size="14.00">RecoverERC721</text>
<polyline fill="none" stroke="black" points="1047.82,-563.3 1615.11,-563.3 "/>
<text text-anchor="start" x="1055.82" y="-546.7" font-family="Times,serif" font-size="14.00">Internal:</text>
<text text-anchor="start" x="1055.82" y="-529.9" font-family="Times,serif" font-size="14.00"> &#160;&#160;&#160;_recoverERC721(tokenAddress: address, tokenReceiver: address, tokenId: uint256, data: bytes)</text>
</g>
<!-- 6&#45;&gt;3 -->
<g id="edge4" class="edge">
<title>6&#45;&gt;3</title>
<path fill="none" stroke="black" stroke-dasharray="5,2" d="M1331.47,-605.07C1331.47,-634.89 1331.47,-677.36 1331.47,-719.65"/>
<polygon fill="black" stroke="black" points="1327.97,-719.81 1331.47,-729.81 1334.97,-719.81 1327.97,-719.81"/>
</g>
<!-- 7 -->
<g id="node8" class="node">
<title>7</title>
<polygon fill="#f2f2f2" stroke="black" points="437.28,-279.9 437.28,-396.7 1095.65,-396.7 1095.65,-279.9 437.28,-279.9"/>
<text text-anchor="middle" x="766.47" y="-380.1" font-family="Times,serif" font-size="14.00">&lt;&lt;Abstract&gt;&gt;</text>
<text text-anchor="middle" x="766.47" y="-363.3" font-family="Times,serif" font-size="14.00">TokenRecover</text>
<polyline fill="none" stroke="black" points="437.28,-355.1 1095.65,-355.1 "/>
<text text-anchor="start" x="445.28" y="-338.5" font-family="Times,serif" font-size="14.00">Public:</text>
<text text-anchor="start" x="445.28" y="-321.7" font-family="Times,serif" font-size="14.00"> &#160;&#160;&#160;constructor(initialOwner: address)</text>
<text text-anchor="start" x="445.28" y="-304.9" font-family="Times,serif" font-size="14.00"> &#160;&#160;&#160;recoverERC20(tokenAddress: address, tokenReceiver: address, tokenAmount: uint256) &lt;&lt;onlyOwner&gt;&gt;</text>
<text text-anchor="start" x="445.28" y="-288.1" font-family="Times,serif" font-size="14.00"> &#160;&#160;&#160;recoverERC721(tokenAddress: address, tokenReceiver: address, tokenId: uint256, data: bytes) &lt;&lt;onlyOwner&gt;&gt;</text>
</g>
<!-- 7&#45;&gt;1 -->
<g id="edge5" class="edge">
<title>7&#45;&gt;1</title>
<path fill="none" stroke="black" d="M587.37,-396.77C563.68,-405.25 539.56,-414.31 512.76,-425.25"/>
<polygon fill="none" stroke="black" points="508.61,-415.6 484.98,-436.86 516.71,-434.98 508.61,-415.6"/>
</g>
<!-- 7&#45;&gt;5 -->
<g id="edge6" class="edge">
<title>7&#45;&gt;5</title>
<path fill="none" stroke="black" d="M766.47,-396.73C766.47,-425.6 766.47,-460.85 766.47,-491.39"/>
<polygon fill="none" stroke="black" points="755.97,-491.6 766.47,-521.6 776.97,-491.6 755.97,-491.6"/>
</g>
<!-- 7&#45;&gt;6 -->
<g id="edge7" class="edge">
<title>7&#45;&gt;6</title>
<path fill="none" stroke="black" d="M940.58,-396.71C973.6,-408.3 1007.74,-420.76 1039.47,-433.2 1098.73,-456.45 1163.6,-484.82 1217.11,-509.04"/>
<polygon fill="none" stroke="black" points="1213.1,-518.76 1244.76,-521.65 1221.81,-499.65 1213.1,-518.76"/>
</g>
<!-- 8 -->
<g id="node9" class="node">
<title>8</title>
<polygon fill="#f2f2f2" stroke="black" points="597.28,-0.5 597.28,-242.9 935.65,-242.9 935.65,-0.5 597.28,-0.5"/>
<text text-anchor="middle" x="766.47" y="-226.3" font-family="Times,serif" font-size="14.00">SampleContract</text>
<polyline fill="none" stroke="black" points="597.28,-218.1 935.65,-218.1 "/>
<text text-anchor="start" x="605.28" y="-201.5" font-family="Times,serif" font-size="14.00">Private:</text>
<text text-anchor="start" x="605.28" y="-184.7" font-family="Times,serif" font-size="14.00"> &#160;&#160;_manager: address</text>
<polyline fill="none" stroke="black" points="597.28,-176.5 935.65,-176.5 "/>
<text text-anchor="start" x="605.28" y="-159.9" font-family="Times,serif" font-size="14.00">Internal:</text>
<text text-anchor="start" x="605.28" y="-143.1" font-family="Times,serif" font-size="14.00"> &#160;&#160;&#160;_internalWork(value: uint256)</text>
<text text-anchor="start" x="605.28" y="-126.3" font-family="Times,serif" font-size="14.00">External:</text>
<text text-anchor="start" x="605.28" y="-109.5" font-family="Times,serif" font-size="14.00"> &#160;&#160;&#160;managerDoesWork(value: uint256) &lt;&lt;onlyManager&gt;&gt;</text>
<text text-anchor="start" x="605.28" y="-92.7" font-family="Times,serif" font-size="14.00"> &#160;&#160;&#160;ownerDoesWork(value: uint256) &lt;&lt;onlyOwner&gt;&gt;</text>
<text text-anchor="start" x="605.28" y="-75.9" font-family="Times,serif" font-size="14.00">Public:</text>
<text text-anchor="start" x="605.28" y="-59.1" font-family="Times,serif" font-size="14.00"> &#160;&#160;&#160;&lt;&lt;event&gt;&gt; WorkDone(value: uint256)</text>
<text text-anchor="start" x="605.28" y="-42.3" font-family="Times,serif" font-size="14.00"> &#160;&#160;&#160;&lt;&lt;modifier&gt;&gt; onlyManager()</text>
<text text-anchor="start" x="605.28" y="-25.5" font-family="Times,serif" font-size="14.00"> &#160;&#160;&#160;constructor(manager_: address)</text>
<text text-anchor="start" x="605.28" y="-8.7" font-family="Times,serif" font-size="14.00"> &#160;&#160;&#160;manager(): address</text>
</g>
<!-- 8&#45;&gt;7 -->
<g id="edge8" class="edge">
<title>8&#45;&gt;7</title>
<path fill="none" stroke="black" d="M766.47,-243.17C766.47,-245.36 766.47,-247.53 766.47,-249.7"/>
<polygon fill="none" stroke="black" points="755.97,-249.82 766.47,-279.82 776.97,-249.82 755.97,-249.82"/>
</g>
</g>
</svg>
